<svg width="16" height="16" viewBox="0 0 16 16" fill="none" xmlns="http://www.w3.org/2000/svg">
<path fill-rule="evenodd" clip-rule="evenodd" d="M1.86872 15.9996C1.78275 15.9996 1.69758 15.9774 1.61808 15.932C1.44288 15.8305 1.33337 15.6301 1.33337 15.412V1.44245C1.33337 0.646436 1.92307 0 2.64821 0H13.3527C14.0778 0 14.6667 0.646436 14.6667 1.44245V15.412C14.6667 15.6301 14.5564 15.8305 14.3812 15.932C14.2052 16.0335 13.9927 16.021 13.8296 15.8972L8.00004 11.5254L2.17046 15.8972C2.08043 15.9649 1.97498 15.9996 1.86872 15.9996ZM2.64818 1.17529C2.51353 1.17529 2.40403 1.2955 2.40403 1.44241V14.2989L7.69827 10.3277C7.88077 10.1906 8.12006 10.1906 8.30175 10.3277L13.596 14.2989V1.44241C13.596 1.2955 13.4865 1.17529 13.3526 1.17529H2.64818Z" fill="#FF5900"/>
</svg>
