<svg width="105" height="64" viewBox="0 0 105 64" fill="none" xmlns="http://www.w3.org/2000/svg">
<path d="M11.8454 42.8486H12.06C14.2373 42.8486 16.4148 42.8486 18.5925 42.8486C18.9093 42.8278 19.2248 42.9045 19.4966 43.0686C19.7684 43.2326 19.9833 43.4761 20.1124 43.7661C20.2215 44.0019 20.2705 44.261 20.2551 44.5204C20.2397 44.7797 20.1603 45.0312 20.024 45.2525C19.8878 45.4737 19.6989 45.6577 19.4741 45.7882C19.2494 45.9186 18.9959 45.9914 18.7363 46H18.7164C12.9971 46 7.27766 46 1.55804 46C1.14816 45.9963 0.75593 45.8326 0.46494 45.5439C0.17395 45.2552 0.00720615 44.8643 0.000228128 44.4545C-0.0067499 44.0446 0.146593 43.6483 0.427587 43.3498C0.70858 43.0514 1.09501 42.8745 1.50453 42.8568C1.89341 42.8395 2.28382 42.8492 2.67373 42.8492H8.39182V35.3691H6.72874V41.4807H3.36485V41.3038C3.36485 36.2916 3.36485 31.2798 3.36485 26.2683C3.34444 26.0404 3.37074 25.8107 3.44213 25.5934C3.51353 25.376 3.62852 25.1755 3.78008 25.0041C3.93164 24.8327 4.11657 24.694 4.32357 24.5965C4.53056 24.4991 4.75527 24.4448 4.98393 24.4372C5.2126 24.4296 5.44042 24.4687 5.65346 24.5521C5.8665 24.6355 6.06028 24.7616 6.22294 24.9225C6.3856 25.0834 6.51372 25.2758 6.59946 25.4879C6.6852 25.7 6.72676 25.9274 6.7216 26.1561C6.7323 26.8075 6.7216 27.4594 6.7216 28.1108C6.7216 29.3748 6.7216 30.6389 6.7216 31.9033V32.1072H8.39794V31.8962C8.39794 27.8642 8.39794 23.8322 8.39794 19.7999C8.37542 19.3566 8.52585 18.9219 8.81754 18.5873C9.10923 18.2527 9.5194 18.0445 9.96163 18.0063C10.4039 17.9682 10.8436 18.1032 11.1883 18.3829C11.5329 18.6627 11.7555 19.0652 11.8092 19.5059C11.8228 19.6275 11.8293 19.7499 11.8286 19.8723C11.8286 23.8764 11.8286 27.8806 11.8286 31.8849V32.1067H13.3138V31.9028C13.3138 30.0091 13.3138 28.1157 13.3138 26.2224C13.2974 25.9949 13.3275 25.7665 13.4022 25.5509C13.4768 25.3354 13.5946 25.1374 13.7482 24.9688C13.9018 24.8002 14.0881 24.6646 14.2958 24.5703C14.5035 24.476 14.7281 24.4248 14.9562 24.4201C15.1842 24.4153 15.4108 24.457 15.6223 24.5425C15.8337 24.6281 16.0255 24.7557 16.1861 24.9177C16.3466 25.0797 16.4725 25.2727 16.5562 25.4849C16.6398 25.6971 16.6794 25.9241 16.6726 26.1521C16.6726 26.2076 16.6726 26.2632 16.6726 26.3192V41.4807H13.3199V35.3645H11.8418L11.8454 42.8486Z" fill="#FF5900"/>
<path d="M65.6773 34.9465C66.0708 35.7386 66.4656 36.5335 66.8618 37.3313C67.0284 37.6672 66.9127 37.8639 66.5371 37.8675C66.1528 37.8711 65.769 37.8675 65.3847 37.8675C65.2794 37.8744 65.1746 37.8471 65.086 37.7897C64.9974 37.7323 64.9297 37.6479 64.8929 37.549C64.5906 36.892 64.2731 36.2416 63.9693 35.5847C63.9513 35.5307 63.9151 35.4846 63.8668 35.4545C63.8185 35.4243 63.7612 35.412 63.7048 35.4195C63.3873 35.4282 63.0693 35.4221 62.7176 35.4221V35.6713C62.7176 36.2727 62.7176 36.8741 62.7176 37.4756C62.7176 37.7742 62.6273 37.8639 62.3297 37.866C61.9529 37.8684 61.5761 37.8684 61.1992 37.866C60.9204 37.866 60.8287 37.7778 60.8282 37.5056C60.8265 35.1723 60.8265 32.8388 60.8282 30.5052C60.8282 30.2504 60.9153 30.1601 61.1661 30.1601C62.3108 30.1601 63.4566 30.1403 64.6003 30.1729C65.1607 30.1907 65.6957 30.4106 66.1066 30.7921C66.5175 31.1735 66.7765 31.6908 66.8358 32.2483C66.9093 32.6416 66.8921 33.0464 66.7855 33.4321C66.6789 33.8177 66.4857 34.1739 66.2206 34.4736C66.0488 34.6416 65.8674 34.7995 65.6773 34.9465ZM62.7349 32.072V33.6158C63.2956 33.6158 63.8394 33.6326 64.3807 33.604C64.4605 33.5922 64.537 33.5642 64.6057 33.5219C64.6743 33.4796 64.7338 33.4238 64.7802 33.3579C64.8744 33.2104 64.9293 33.0413 64.9396 32.8666C64.95 32.6919 64.9155 32.5175 64.8394 32.3599C64.808 32.2774 64.7521 32.2063 64.6792 32.1564C64.6064 32.1065 64.5199 32.0801 64.4316 32.0806C64.2074 32.073 63.9826 32.0725 63.7583 32.072C63.4204 32.0714 63.082 32.0725 62.7349 32.0725V32.072Z" fill="#FF5900"/>
<path d="M46.3543 35.0675C45.9787 35.0675 45.6321 35.0675 45.284 35.0675C44.9914 35.0675 44.9099 34.9829 44.9084 34.6919C44.9084 34.4092 44.9084 34.1265 44.9084 33.8438C44.9084 33.5425 44.993 33.4544 45.2947 33.4538C46.1138 33.4513 46.9328 33.4538 47.7519 33.4538C47.8314 33.4538 47.9119 33.4498 47.9909 33.4538C48.2121 33.4707 48.3059 33.5644 48.3064 33.7841C48.3084 35.0308 48.3084 36.2776 48.3064 37.5246C48.3064 37.7545 48.2045 37.8544 47.9787 37.8682H47.9568C47.5618 37.8972 47.1815 37.8983 47.0903 37.3906C47.0604 37.3917 47.0308 37.3967 47.0021 37.4054C46.3792 37.7636 45.6691 37.9419 44.9509 37.9203C44.2327 37.8987 43.5345 37.6782 42.9342 37.2833C42.3339 36.8884 41.855 36.3346 41.5509 35.6836C41.2467 35.0325 41.1293 34.3099 41.2117 33.5961C41.2731 32.7709 41.6037 31.9887 42.1526 31.3696C42.7015 30.7505 43.4385 30.3287 44.2504 30.169C44.8914 30.0123 45.5613 30.0173 46.1999 30.1837C46.8385 30.35 47.4258 30.6725 47.9089 31.1221C47.953 31.1517 47.9891 31.1917 48.0143 31.2385C48.0395 31.2853 48.0529 31.3376 48.0533 31.3907C48.0538 31.4439 48.0413 31.4963 48.0169 31.5436C47.9925 31.5908 47.957 31.6314 47.9134 31.6618C47.6887 31.8657 47.4598 32.0696 47.231 32.2683C47.1962 32.3136 47.1519 32.3506 47.1013 32.3769C47.0506 32.4032 46.9948 32.418 46.9378 32.4203C46.8808 32.4226 46.8239 32.4124 46.7713 32.3904C46.7187 32.3684 46.6715 32.3351 46.6331 32.2928C46.3568 32.0973 46.0428 31.9616 45.711 31.8943C45.3793 31.8271 45.0372 31.8299 44.7065 31.9024C44.2814 31.9951 43.8967 32.2204 43.6079 32.5459C43.319 32.8713 43.141 33.2801 43.0995 33.7133C43.0221 34.2376 43.1306 34.7725 43.4061 35.2253C43.6817 35.6781 44.1069 36.0202 44.6082 36.1924C45.1209 36.3378 45.6661 36.3216 46.1693 36.146C46.2296 36.1363 46.2835 36.1032 46.3194 36.0538C46.3552 36.0043 46.37 35.9428 46.3604 35.8825C46.3441 35.6236 46.3543 35.3626 46.3543 35.0675Z" fill="#FF5900"/>
<path d="M72.0925 33.2132H74.4763V32.9691C74.4763 32.1719 74.4763 31.3748 74.4763 30.5777C74.4763 30.2275 74.5461 30.1612 74.8998 30.1602C75.2693 30.1602 75.6388 30.1572 76.0088 30.1602C76.2825 30.1633 76.3697 30.253 76.3702 30.5292C76.3702 32.8483 76.3702 35.1673 76.3702 37.4864C76.3702 37.7697 76.2769 37.8645 75.9935 37.8666C75.6167 37.8693 75.2397 37.8693 74.8626 37.8666C74.5629 37.8666 74.4778 37.7809 74.4763 37.4746C74.4732 36.7499 74.4763 36.0251 74.4763 35.3003V35.0271H72.1037C72.1001 35.1061 72.0935 35.1831 72.0935 35.2601C72.0935 35.992 72.0935 36.7239 72.0935 37.4558C72.0935 37.7769 72.0023 37.8635 71.6761 37.8666C71.3066 37.8666 70.937 37.8666 70.567 37.8666C70.2841 37.8666 70.1924 37.7713 70.1919 37.4843C70.1919 35.1738 70.1919 32.8619 70.1919 30.5486C70.1919 30.2428 70.2734 30.1618 70.5782 30.1597C70.955 30.1573 71.3319 30.1573 71.7087 30.1597C72.0043 30.1597 72.0925 30.253 72.0935 30.5552C72.0935 31.3598 72.0935 32.1643 72.0935 32.9685L72.0925 33.2132Z" fill="#FF5900"/>
<path d="M53.8009 31.993V33.1545H54.1337C54.8514 33.1545 55.5685 33.1545 56.2861 33.1545C56.5874 33.1545 56.6699 33.2422 56.6714 33.546C56.6714 33.8574 56.6714 34.1693 56.6714 34.4807C56.6714 34.8885 56.6098 34.9491 56.2127 34.9496C55.4955 34.9496 54.778 34.9496 54.0604 34.9496H53.8055V36.0709H56.9207C57.3223 36.0709 57.3819 36.1326 57.3825 36.5424C57.3825 36.8538 57.3825 37.1657 57.3825 37.4771C57.3799 37.7682 57.2938 37.8635 57.0109 37.864C55.4238 37.8667 53.8368 37.8667 52.25 37.864C51.9951 37.864 51.8881 37.762 51.8881 37.5072C51.8861 35.1739 51.8861 32.8404 51.8881 30.5068C51.8881 30.2606 51.99 30.1576 52.2301 30.1571C53.8315 30.1544 55.4329 30.1544 57.0343 30.1571C57.2815 30.1571 57.3779 30.2545 57.3814 30.4996C57.387 30.862 57.385 31.2244 57.3814 31.5868C57.3814 31.9018 57.2963 31.9874 56.9808 31.9884C56.01 31.9904 55.039 31.9904 54.0675 31.9884L53.8009 31.993Z" fill="#FF5900"/>
<path d="M80.3403 37.8681C80.1226 37.8681 79.905 37.8732 79.6879 37.8681C79.3958 37.8595 79.2832 37.678 79.4081 37.4196C80.5321 35.0928 81.6564 32.7663 82.7811 30.4401C82.8159 30.3478 82.8782 30.2685 82.9597 30.2129C83.0411 30.1573 83.1377 30.1281 83.2363 30.1292C83.3347 30.1301 83.4305 30.161 83.5111 30.2176C83.5916 30.2742 83.6531 30.3539 83.6873 30.4462C84.8086 32.7666 85.9299 35.0861 87.0512 37.4048C87.1837 37.6785 87.0736 37.8636 86.7688 37.8681C86.3483 37.8743 85.9279 37.862 85.5074 37.8727C85.4057 37.8811 85.304 37.8561 85.2178 37.8014C85.1316 37.7468 85.0656 37.6655 85.0298 37.57C84.8835 37.2545 84.7311 36.9421 84.5935 36.6235C84.5769 36.5733 84.5431 36.5304 84.4982 36.5025C84.4532 36.4746 84.3998 36.4633 84.3473 36.4706C83.5998 36.4757 82.8531 36.4757 82.1073 36.4706C82.0543 36.465 82.001 36.4781 81.9567 36.5077C81.9123 36.5373 81.8798 36.5815 81.8647 36.6327C81.7317 36.9385 81.5839 37.2366 81.4483 37.5404C81.4134 37.6483 81.3421 37.7406 81.2466 37.8017C81.1512 37.8628 81.0374 37.8888 80.9249 37.8753C80.7332 37.8569 80.537 37.8681 80.3403 37.8681ZM83.7939 34.8768L83.2332 33.7153L82.6471 34.8768H83.7939Z" fill="#FF5900"/>
<path d="M30.9872 31.9939V32.2818C30.9872 33.992 30.9872 35.7021 30.9872 37.4123C30.9872 37.7925 30.9108 37.8679 30.5285 37.8684C30.1809 37.8684 29.8328 37.8684 29.4852 37.8684C29.1733 37.8684 29.0846 37.7793 29.0841 37.4663C29.0841 35.7334 29.0841 34.0015 29.0841 32.2706V31.9939H27.6748C27.2671 31.9939 27.2049 31.9317 27.2049 31.5352C27.2049 31.1947 27.2049 30.8542 27.2049 30.5158C27.2049 30.2645 27.2946 30.1657 27.5398 30.1652C29.2047 30.1624 30.8714 30.1624 32.5397 30.1652C32.7721 30.1652 32.8639 30.2671 32.8664 30.5031C32.8695 30.8655 32.8664 31.2278 32.8664 31.5902C32.8664 31.9144 32.7854 31.9949 32.451 31.998C31.974 31.9954 31.4964 31.9939 30.9872 31.9939Z" fill="#FF5900"/>
<path d="M100.776 36.0899H103.922C104.305 36.0899 104.375 36.1603 104.375 36.5486C104.375 36.8677 104.378 37.1862 104.375 37.5053C104.372 37.7647 104.28 37.8672 104.022 37.8677C102.421 37.8711 100.82 37.8711 99.2181 37.8677C98.9827 37.8677 98.8965 37.7729 98.8812 37.5349C98.8777 37.4839 98.8812 37.4329 98.8812 37.382C98.8812 35.1356 98.8812 32.8893 98.8812 30.643C98.8812 30.2103 98.9322 30.1603 99.3721 30.1603C99.7125 30.1603 100.053 30.1603 100.391 30.1603C100.697 30.1603 100.776 30.2454 100.776 30.5502C100.776 32.3039 100.776 34.0575 100.776 35.8111V36.0899Z" fill="#FF5900"/>
<path d="M91.9899 36.0905H92.2473C93.2255 36.0905 94.2038 36.0905 95.1821 36.0905C95.5032 36.0905 95.5898 36.1777 95.5898 36.5054C95.5898 36.8331 95.5923 37.1721 95.5898 37.5054C95.5872 37.7638 95.4935 37.8657 95.233 37.8663C93.6316 37.8696 92.0302 37.8696 90.4288 37.8663C90.1872 37.8663 90.0975 37.7684 90.0955 37.5095C90.0904 36.93 90.0955 36.35 90.0955 35.7704C90.0955 34.0603 90.0955 32.3503 90.0955 30.6405C90.0955 30.2012 90.1387 30.1589 90.5857 30.1589C90.9262 30.1589 91.2667 30.1589 91.6051 30.1589C91.9109 30.1589 91.9874 30.2425 91.9874 30.5508C91.9874 32.3045 91.9874 34.0579 91.9874 35.8112L91.9899 36.0905Z" fill="#FF5900"/>
<path d="M37.8695 34.0067C37.8695 35.1596 37.8695 36.3124 37.8695 37.4649C37.8695 37.7763 37.7808 37.866 37.4699 37.8676C37.1002 37.8693 36.7304 37.8693 36.3603 37.8676C36.0606 37.8676 35.9714 37.7799 35.9709 37.4756C35.9692 35.1627 35.9692 32.8498 35.9709 30.5368C35.9709 30.2448 36.0586 30.1627 36.3496 30.1607C36.7264 30.1577 37.1034 30.1577 37.4806 30.1607C37.7864 30.1607 37.8679 30.2463 37.8685 30.5486C37.8698 31.7015 37.8702 32.8542 37.8695 34.0067Z" fill="#FF5900"/>
</svg>
