<svg width="21" height="28" viewBox="0 0 21 28" fill="none" xmlns="http://www.w3.org/2000/svg">
<path d="M11.8454 24.8486H12.06C14.2373 24.8486 16.4148 24.8486 18.5925 24.8486C18.9093 24.8278 19.2248 24.9045 19.4966 25.0686C19.7684 25.2326 19.9833 25.4761 20.1124 25.7661C20.2215 26.0019 20.2705 26.261 20.2551 26.5204C20.2397 26.7797 20.1603 27.0312 20.024 27.2525C19.8878 27.4737 19.6989 27.6577 19.4741 27.7882C19.2494 27.9186 18.9959 27.9914 18.7363 28H18.7164C12.9971 28 7.27766 28 1.55804 28C1.14816 27.9963 0.75593 27.8326 0.46494 27.5439C0.17395 27.2552 0.00720615 26.8643 0.000228128 26.4545C-0.0067499 26.0446 0.146593 25.6483 0.427587 25.3498C0.70858 25.0514 1.09501 24.8745 1.50453 24.8568C1.89341 24.8395 2.28382 24.8492 2.67373 24.8492H8.39182V17.3691H6.72874V23.4807H3.36485V23.3038C3.36485 18.2916 3.36485 13.2798 3.36485 8.26828C3.34444 8.04039 3.37074 7.81074 3.44213 7.59337C3.51353 7.37599 3.62852 7.17547 3.78008 7.00407C3.93164 6.83267 4.11657 6.694 4.32357 6.59653C4.53056 6.49906 4.75527 6.44485 4.98393 6.43721C5.2126 6.42957 5.44042 6.46867 5.65346 6.55211C5.8665 6.63555 6.06028 6.76157 6.22294 6.92247C6.3856 7.08338 6.51372 7.27578 6.59946 7.4879C6.6852 7.70002 6.72676 7.92741 6.7216 8.15615C6.7323 8.80752 6.7216 9.45939 6.7216 10.1108C6.7216 11.3748 6.7216 12.6389 6.7216 13.9033V14.1072H8.39794V13.8962C8.39794 9.86425 8.39794 5.83218 8.39794 1.79993C8.37542 1.35663 8.52585 0.921897 8.81754 0.587322C9.10923 0.252746 9.5194 0.0444591 9.96163 0.00633445C10.4039 -0.0317902 10.8436 0.10323 11.1883 0.382948C11.5329 0.662665 11.7555 1.06524 11.8092 1.50585C11.8228 1.62752 11.8293 1.74989 11.8286 1.87231C11.8286 5.87635 11.8286 9.88056 11.8286 13.8849V14.1067H13.3138V13.9028C13.3138 12.0091 13.3138 10.1157 13.3138 8.22241C13.2974 7.99491 13.3275 7.76646 13.4022 7.55095C13.4768 7.33544 13.5946 7.13736 13.7482 6.96877C13.9018 6.80018 14.0881 6.66461 14.2958 6.57028C14.5035 6.47595 14.7281 6.42485 14.9562 6.42007C15.1842 6.4153 15.4108 6.45695 15.6223 6.5425C15.8337 6.62805 16.0255 6.75572 16.1861 6.91772C16.3466 7.07973 16.4725 7.2727 16.5562 7.4849C16.6398 7.6971 16.6794 7.92409 16.6726 8.15207C16.6726 8.20763 16.6726 8.26318 16.6726 8.31924V23.4807H13.3199V17.3645H11.8418L11.8454 24.8486Z" fill="#FF5900"/>
</svg>
