<svg width="105" height="28" viewBox="0 0 105 28" fill="none" xmlns="http://www.w3.org/2000/svg">
<path d="M11.8454 24.8486H12.06C14.2373 24.8486 16.4148 24.8486 18.5925 24.8486C18.9093 24.8278 19.2248 24.9045 19.4966 25.0686C19.7684 25.2326 19.9833 25.4761 20.1124 25.7661C20.2215 26.0019 20.2705 26.261 20.2551 26.5204C20.2397 26.7797 20.1603 27.0312 20.024 27.2525C19.8878 27.4737 19.6989 27.6577 19.4741 27.7882C19.2494 27.9186 18.9959 27.9914 18.7363 28H18.7164C12.9971 28 7.27766 28 1.55804 28C1.14816 27.9963 0.75593 27.8326 0.46494 27.5439C0.17395 27.2552 0.00720615 26.8643 0.000228128 26.4545C-0.0067499 26.0446 0.146593 25.6483 0.427587 25.3498C0.70858 25.0514 1.09501 24.8745 1.50453 24.8568C1.89341 24.8395 2.28382 24.8492 2.67373 24.8492H8.39182V17.3691H6.72874V23.4807H3.36485V23.3038C3.36485 18.2916 3.36485 13.2798 3.36485 8.26828C3.34444 8.04039 3.37074 7.81074 3.44213 7.59337C3.51353 7.37599 3.62852 7.17547 3.78008 7.00407C3.93164 6.83267 4.11657 6.694 4.32357 6.59653C4.53056 6.49906 4.75527 6.44485 4.98393 6.43721C5.2126 6.42957 5.44042 6.46867 5.65346 6.55211C5.8665 6.63555 6.06028 6.76157 6.22294 6.92247C6.3856 7.08338 6.51372 7.27578 6.59946 7.4879C6.6852 7.70002 6.72676 7.92741 6.7216 8.15615C6.7323 8.80752 6.7216 9.45939 6.7216 10.1108C6.7216 11.3748 6.7216 12.6389 6.7216 13.9033V14.1072H8.39794V13.8962C8.39794 9.86425 8.39794 5.83218 8.39794 1.79993C8.37542 1.35663 8.52585 0.921897 8.81754 0.587322C9.10923 0.252746 9.5194 0.0444591 9.96163 0.00633445C10.4039 -0.0317902 10.8436 0.10323 11.1883 0.382948C11.5329 0.662665 11.7555 1.06524 11.8092 1.50585C11.8228 1.62752 11.8293 1.74989 11.8286 1.87231C11.8286 5.87635 11.8286 9.88056 11.8286 13.8849V14.1067H13.3138V13.9028C13.3138 12.0091 13.3138 10.1157 13.3138 8.22241C13.2974 7.99491 13.3275 7.76646 13.4022 7.55095C13.4768 7.33544 13.5946 7.13736 13.7482 6.96877C13.9018 6.80018 14.0881 6.66461 14.2958 6.57028C14.5035 6.47595 14.7281 6.42485 14.9562 6.42007C15.1842 6.4153 15.4108 6.45695 15.6223 6.5425C15.8337 6.62805 16.0255 6.75572 16.1861 6.91772C16.3466 7.07973 16.4725 7.2727 16.5562 7.4849C16.6398 7.6971 16.6794 7.92409 16.6726 8.15207C16.6726 8.20763 16.6726 8.26318 16.6726 8.31924V23.4807H13.3199V17.3645H11.8418L11.8454 24.8486Z" fill="#FF5900"/>
<path d="M65.6773 16.9465C66.0708 17.7386 66.4656 18.5335 66.8618 19.3313C67.0284 19.6672 66.9127 19.8639 66.5371 19.8675C66.1528 19.8711 65.769 19.8675 65.3847 19.8675C65.2794 19.8744 65.1746 19.8471 65.086 19.7897C64.9974 19.7323 64.9297 19.6479 64.8929 19.549C64.5906 18.892 64.2731 18.2416 63.9693 17.5847C63.9513 17.5307 63.9151 17.4846 63.8668 17.4545C63.8185 17.4243 63.7612 17.412 63.7048 17.4195C63.3873 17.4282 63.0693 17.4221 62.7176 17.4221V17.6713C62.7176 18.2727 62.7176 18.8741 62.7176 19.4756C62.7176 19.7742 62.6273 19.8639 62.3297 19.866C61.9529 19.8684 61.5761 19.8684 61.1992 19.866C60.9204 19.866 60.8287 19.7778 60.8282 19.5056C60.8265 17.1723 60.8265 14.8388 60.8282 12.5052C60.8282 12.2504 60.9153 12.1601 61.1661 12.1601C62.3108 12.1601 63.4566 12.1403 64.6003 12.1729C65.1607 12.1907 65.6957 12.4106 66.1066 12.7921C66.5175 13.1735 66.7765 13.6908 66.8358 14.2483C66.9093 14.6416 66.8921 15.0464 66.7855 15.4321C66.6789 15.8177 66.4857 16.1739 66.2206 16.4736C66.0488 16.6416 65.8674 16.7995 65.6773 16.9465ZM62.7349 14.072V15.6158C63.2956 15.6158 63.8394 15.6326 64.3807 15.604C64.4605 15.5922 64.537 15.5642 64.6057 15.5219C64.6743 15.4796 64.7338 15.4238 64.7802 15.3579C64.8744 15.2104 64.9293 15.0413 64.9396 14.8666C64.95 14.6919 64.9155 14.5175 64.8394 14.3599C64.808 14.2774 64.7521 14.2063 64.6792 14.1564C64.6064 14.1065 64.5199 14.0801 64.4316 14.0806C64.2074 14.073 63.9826 14.0725 63.7583 14.072C63.4204 14.0714 63.082 14.0725 62.7349 14.0725V14.072Z" fill="#FF5900"/>
<path d="M46.3543 17.0675C45.9787 17.0675 45.6321 17.0675 45.284 17.0675C44.9914 17.0675 44.9099 16.9829 44.9084 16.6919C44.9084 16.4092 44.9084 16.1265 44.9084 15.8438C44.9084 15.5425 44.993 15.4544 45.2947 15.4538C46.1138 15.4513 46.9328 15.4538 47.7519 15.4538C47.8314 15.4538 47.9119 15.4498 47.9909 15.4538C48.2121 15.4707 48.3059 15.5644 48.3064 15.7841C48.3084 17.0308 48.3084 18.2776 48.3064 19.5246C48.3064 19.7545 48.2045 19.8544 47.9787 19.8682H47.9568C47.5618 19.8972 47.1815 19.8983 47.0903 19.3906C47.0604 19.3917 47.0308 19.3967 47.0021 19.4054C46.3792 19.7636 45.6691 19.9419 44.9509 19.9203C44.2327 19.8987 43.5345 19.6782 42.9342 19.2833C42.3339 18.8884 41.855 18.3346 41.5509 17.6836C41.2467 17.0325 41.1293 16.3099 41.2117 15.5961C41.2731 14.7709 41.6037 13.9887 42.1526 13.3696C42.7015 12.7505 43.4385 12.3287 44.2504 12.169C44.8914 12.0123 45.5613 12.0173 46.1999 12.1837C46.8385 12.35 47.4258 12.6725 47.9089 13.1221C47.953 13.1517 47.9891 13.1917 48.0143 13.2385C48.0395 13.2853 48.0529 13.3376 48.0533 13.3907C48.0538 13.4439 48.0413 13.4963 48.0169 13.5436C47.9925 13.5908 47.957 13.6314 47.9134 13.6618C47.6887 13.8657 47.4598 14.0696 47.231 14.2683C47.1962 14.3136 47.1519 14.3506 47.1013 14.3769C47.0506 14.4032 46.9948 14.418 46.9378 14.4203C46.8808 14.4226 46.8239 14.4124 46.7713 14.3904C46.7187 14.3684 46.6715 14.3351 46.6331 14.2928C46.3568 14.0973 46.0428 13.9616 45.711 13.8943C45.3793 13.8271 45.0372 13.8299 44.7065 13.9024C44.2814 13.9951 43.8967 14.2204 43.6079 14.5459C43.319 14.8713 43.141 15.2801 43.0995 15.7133C43.0221 16.2376 43.1306 16.7725 43.4061 17.2253C43.6817 17.6781 44.1069 18.0202 44.6082 18.1924C45.1209 18.3378 45.6661 18.3216 46.1693 18.146C46.2296 18.1363 46.2835 18.1032 46.3194 18.0538C46.3552 18.0043 46.37 17.9428 46.3604 17.8825C46.3441 17.6236 46.3543 17.3626 46.3543 17.0675Z" fill="#FF5900"/>
<path d="M72.0925 15.2132H74.4763V14.9691C74.4763 14.1719 74.4763 13.3748 74.4763 12.5777C74.4763 12.2275 74.5461 12.1612 74.8998 12.1602C75.2693 12.1602 75.6388 12.1572 76.0088 12.1602C76.2825 12.1633 76.3697 12.253 76.3702 12.5292C76.3702 14.8483 76.3702 17.1673 76.3702 19.4864C76.3702 19.7697 76.2769 19.8645 75.9935 19.8666C75.6167 19.8693 75.2397 19.8693 74.8626 19.8666C74.5629 19.8666 74.4778 19.7809 74.4763 19.4746C74.4732 18.7499 74.4763 18.0251 74.4763 17.3003V17.0271H72.1037C72.1001 17.1061 72.0935 17.1831 72.0935 17.2601C72.0935 17.992 72.0935 18.7239 72.0935 19.4558C72.0935 19.7769 72.0023 19.8635 71.6761 19.8666C71.3066 19.8666 70.937 19.8666 70.567 19.8666C70.2841 19.8666 70.1924 19.7713 70.1919 19.4843C70.1919 17.1738 70.1919 14.8619 70.1919 12.5486C70.1919 12.2428 70.2734 12.1618 70.5782 12.1597C70.955 12.1573 71.3319 12.1573 71.7087 12.1597C72.0043 12.1597 72.0925 12.253 72.0935 12.5552C72.0935 13.3598 72.0935 14.1643 72.0935 14.9685L72.0925 15.2132Z" fill="#FF5900"/>
<path d="M53.8009 13.993V15.1545H54.1337C54.8514 15.1545 55.5685 15.1545 56.2861 15.1545C56.5874 15.1545 56.6699 15.2422 56.6714 15.546C56.6714 15.8574 56.6714 16.1693 56.6714 16.4807C56.6714 16.8885 56.6098 16.9491 56.2127 16.9496C55.4955 16.9496 54.778 16.9496 54.0604 16.9496H53.8055V18.0709H56.9207C57.3223 18.0709 57.3819 18.1326 57.3825 18.5424C57.3825 18.8538 57.3825 19.1657 57.3825 19.4771C57.3799 19.7682 57.2938 19.8635 57.0109 19.864C55.4238 19.8667 53.8368 19.8667 52.25 19.864C51.9951 19.864 51.8881 19.762 51.8881 19.5072C51.8861 17.1739 51.8861 14.8404 51.8881 12.5068C51.8881 12.2606 51.99 12.1576 52.2301 12.1571C53.8315 12.1544 55.4329 12.1544 57.0343 12.1571C57.2815 12.1571 57.3779 12.2545 57.3814 12.4996C57.387 12.862 57.385 13.2244 57.3814 13.5868C57.3814 13.9018 57.2963 13.9874 56.9808 13.9884C56.01 13.9904 55.039 13.9904 54.0675 13.9884L53.8009 13.993Z" fill="#FF5900"/>
<path d="M80.3403 19.8681C80.1226 19.8681 79.905 19.8732 79.6879 19.8681C79.3958 19.8595 79.2832 19.678 79.4081 19.4196C80.5321 17.0928 81.6564 14.7663 82.7811 12.4401C82.8159 12.3478 82.8782 12.2685 82.9597 12.2129C83.0411 12.1573 83.1377 12.1281 83.2363 12.1292C83.3347 12.1301 83.4305 12.161 83.5111 12.2176C83.5916 12.2742 83.6531 12.3539 83.6873 12.4462C84.8086 14.7666 85.9299 17.0861 87.0512 19.4048C87.1837 19.6785 87.0736 19.8636 86.7688 19.8681C86.3483 19.8743 85.9279 19.862 85.5074 19.8727C85.4057 19.8811 85.304 19.8561 85.2178 19.8014C85.1316 19.7468 85.0656 19.6655 85.0298 19.57C84.8835 19.2545 84.7311 18.9421 84.5935 18.6235C84.5769 18.5733 84.5431 18.5304 84.4982 18.5025C84.4532 18.4746 84.3998 18.4633 84.3473 18.4706C83.5998 18.4757 82.8531 18.4757 82.1073 18.4706C82.0543 18.465 82.001 18.4781 81.9567 18.5077C81.9123 18.5373 81.8798 18.5815 81.8647 18.6327C81.7317 18.9385 81.5839 19.2366 81.4483 19.5404C81.4134 19.6483 81.3421 19.7406 81.2466 19.8017C81.1512 19.8628 81.0374 19.8888 80.9249 19.8753C80.7332 19.8569 80.537 19.8681 80.3403 19.8681ZM83.7939 16.8768L83.2332 15.7153L82.6471 16.8768H83.7939Z" fill="#FF5900"/>
<path d="M30.9872 13.9939V14.2818C30.9872 15.992 30.9872 17.7021 30.9872 19.4123C30.9872 19.7925 30.9108 19.8679 30.5285 19.8684C30.1809 19.8684 29.8328 19.8684 29.4852 19.8684C29.1733 19.8684 29.0846 19.7793 29.0841 19.4663C29.0841 17.7334 29.0841 16.0015 29.0841 14.2706V13.9939H27.6748C27.2671 13.9939 27.2049 13.9317 27.2049 13.5352C27.2049 13.1947 27.2049 12.8542 27.2049 12.5158C27.2049 12.2645 27.2946 12.1657 27.5398 12.1652C29.2047 12.1624 30.8714 12.1624 32.5397 12.1652C32.7721 12.1652 32.8639 12.2671 32.8664 12.5031C32.8695 12.8655 32.8664 13.2278 32.8664 13.5902C32.8664 13.9144 32.7854 13.9949 32.451 13.998C31.974 13.9954 31.4964 13.9939 30.9872 13.9939Z" fill="#FF5900"/>
<path d="M100.776 18.0899H103.922C104.305 18.0899 104.375 18.1603 104.375 18.5486C104.375 18.8677 104.378 19.1862 104.375 19.5053C104.372 19.7647 104.28 19.8672 104.022 19.8677C102.421 19.8711 100.82 19.8711 99.2181 19.8677C98.9827 19.8677 98.8965 19.7729 98.8812 19.5349C98.8777 19.4839 98.8812 19.4329 98.8812 19.382C98.8812 17.1356 98.8812 14.8893 98.8812 12.643C98.8812 12.2103 98.9322 12.1603 99.3721 12.1603C99.7125 12.1603 100.053 12.1603 100.391 12.1603C100.697 12.1603 100.776 12.2454 100.776 12.5502C100.776 14.3039 100.776 16.0575 100.776 17.8111V18.0899Z" fill="#FF5900"/>
<path d="M91.9899 18.0905H92.2473C93.2255 18.0905 94.2038 18.0905 95.1821 18.0905C95.5032 18.0905 95.5898 18.1777 95.5898 18.5054C95.5898 18.8331 95.5923 19.1721 95.5898 19.5054C95.5872 19.7638 95.4935 19.8657 95.233 19.8663C93.6316 19.8696 92.0302 19.8696 90.4288 19.8663C90.1872 19.8663 90.0975 19.7684 90.0955 19.5095C90.0904 18.93 90.0955 18.35 90.0955 17.7704C90.0955 16.0603 90.0955 14.3503 90.0955 12.6405C90.0955 12.2012 90.1387 12.1589 90.5857 12.1589C90.9262 12.1589 91.2667 12.1589 91.6051 12.1589C91.9109 12.1589 91.9874 12.2425 91.9874 12.5508C91.9874 14.3045 91.9874 16.0579 91.9874 17.8112L91.9899 18.0905Z" fill="#FF5900"/>
<path d="M37.8695 16.0067C37.8695 17.1596 37.8695 18.3124 37.8695 19.4649C37.8695 19.7763 37.7808 19.866 37.4699 19.8676C37.1002 19.8693 36.7304 19.8693 36.3603 19.8676C36.0606 19.8676 35.9714 19.7799 35.9709 19.4756C35.9692 17.1627 35.9692 14.8498 35.9709 12.5368C35.9709 12.2448 36.0586 12.1627 36.3496 12.1607C36.7264 12.1577 37.1034 12.1577 37.4806 12.1607C37.7864 12.1607 37.8679 12.2463 37.8685 12.5486C37.8698 13.7015 37.8702 14.8542 37.8695 16.0067Z" fill="#FF5900"/>
</svg>
