<svg width="24" height="24" viewBox="0 0 24 24" fill="none" xmlns="http://www.w3.org/2000/svg">
<circle cx="12" cy="12" r="12" fill="#FF5900"/>
<path d="M19 11.927C19 8.34967 16.1815 5.31655 12.5837 5.02251C10.6745 4.86668 8.74932 5.5253 7.30492 6.83106C5.76687 8.2213 4.92879 10.1746 5.00475 12.1899C5.02763 12.7985 5.13464 13.3943 5.31288 13.9681C5.30857 14.0087 5.29994 14.048 5.29994 14.0899V16.603C5.29994 17.2796 5.88253 17.8333 6.59459 17.8333H8.66561C8.81019 17.8333 8.92885 17.7205 8.92885 17.5831V13.1097C8.92885 12.9723 8.81018 12.8595 8.66561 12.8595H6.59459C6.51994 12.8595 6.44742 12.869 6.37622 12.8809C6.33566 12.6385 6.3076 12.3937 6.29854 12.1455C6.23553 10.4822 6.92774 8.87006 8.19693 7.7226C9.37334 6.66002 10.9325 6.12238 12.4723 6.24827C15.4069 6.48859 17.7053 8.98283 17.7053 11.927C17.7053 12.2497 17.6773 12.5684 17.6246 12.8809C17.553 12.869 17.4805 12.8595 17.4054 12.8595H15.3344C15.1894 12.8595 15.0711 12.9723 15.0711 13.1097V17.5831C15.0711 17.7205 15.1894 17.8333 15.3344 17.8333H17.4054C18.1175 17.8333 18.7001 17.2796 18.7001 16.603V14.0899C18.7001 14.0497 18.6919 14.0119 18.6876 13.9726C18.8921 13.3168 19 12.6303 19 11.927L19 11.927Z" fill="white"/>
</svg>
