<svg width="17" height="16" viewBox="0 0 17 16" fill="none" xmlns="http://www.w3.org/2000/svg">
<path fill-rule="evenodd" clip-rule="evenodd" d="M11.1396 12.1065C9.9812 12.9861 8.52924 13.5094 6.95316 13.5094C3.16407 13.5094 0.0924072 10.4852 0.0924072 6.75468C0.0924072 3.02417 3.16407 0 6.95316 0C10.7422 0 13.8139 3.02417 13.8139 6.75468C13.8139 8.36144 13.2441 9.83718 12.2925 10.9967L15.6838 14.3763C15.9987 14.6863 15.9987 15.1888 15.6838 15.4988C15.369 15.8088 14.8585 15.8088 14.5437 15.4988L11.1396 12.1065ZM12.2139 6.75468C12.2139 9.57812 9.88218 11.9094 6.95316 11.9094C4.02413 11.9094 1.69241 9.57812 1.69241 6.75468C1.69241 3.93124 4.02413 1.6 6.95316 1.6C9.88218 1.6 12.2139 3.93124 12.2139 6.75468Z" fill="white"/>
</svg>
