<svg width="16" height="16" viewBox="0 0 16 16" fill="none" xmlns="http://www.w3.org/2000/svg">
<path fill-rule="evenodd" clip-rule="evenodd" d="M12.1634 10.2416C11.3319 10.2416 10.5919 10.6192 10.0756 11.2069L6.1438 8.88108C6.23521 8.59703 6.29703 8.29963 6.29703 7.98442C6.29703 7.67277 6.23608 7.37715 6.14554 7.09578L10.0712 4.78692C10.5875 5.37815 11.3293 5.75748 12.1634 5.75748C13.7157 5.75748 14.979 4.46636 14.979 2.87874C14.979 1.29111 13.7157 0 12.1634 0C10.611 0 9.34861 1.29111 9.34861 2.87874C9.34861 3.19038 9.40955 3.48511 9.5001 3.76738L5.57353 6.07624C5.05812 5.485 4.31547 5.10568 3.48226 5.10568C1.92905 5.10568 0.666626 6.39679 0.666626 7.98442C0.666626 9.57293 1.92905 10.8649 3.48226 10.8649C4.31372 10.8649 5.05376 10.4874 5.56918 9.89883L9.50183 12.2246C9.41042 12.5087 9.34861 12.8061 9.34861 13.1204C9.34861 14.708 10.611 16 12.1634 16C13.7157 16 14.979 14.708 14.979 13.1204C14.979 11.5327 13.7157 10.2416 12.1634 10.2416ZM12.1634 1.17535C13.0819 1.17535 13.8289 1.93933 13.8289 2.87873C13.8289 3.81812 13.0819 4.5821 12.1634 4.5821C11.2458 4.5821 10.4979 3.81812 10.4979 2.87873C10.4979 1.93933 11.2458 1.17535 12.1634 1.17535ZM3.48224 9.68868C2.56372 9.68868 1.81671 8.92469 1.81671 7.98441C1.81671 7.0459 2.56372 6.28103 3.48224 6.28103C4.39989 6.28103 5.14776 7.0459 5.14776 7.98441C5.14776 8.92469 4.39989 9.68868 3.48224 9.68868ZM12.1634 14.8247C11.2458 14.8247 10.4979 14.0608 10.4979 13.1205C10.4979 12.1811 11.2458 11.4171 12.1634 11.4171C13.0819 11.4171 13.8289 12.1811 13.8289 13.1205C13.8289 14.0608 13.0819 14.8247 12.1634 14.8247Z" fill="#FF5900"/>
</svg>
